<svg width="1433" height="694" viewBox="0 0 1433 694" fill="none" xmlns="http://www.w3.org/2000/svg">
<g clip-path="url(#clip0_87_2352)">
<mask id="mask0_87_2352" style="mask-type:luminance" maskUnits="userSpaceOnUse" x="36" y="52" width="329" height="344">
<path d="M36.0947 52.3567H364.442V395.569H36.0947V52.3567Z" fill="white"/>
</mask>
<g mask="url(#mask0_87_2352)">
<path d="M46.7169 81.7547L67.8912 97.6079L76.7784 108.278L84.2143 109.397L97.1442 125.237L102.79 128.153L103.765 134.449L112.963 140.827L115.209 154.739L123.384 154.414L130.004 159.742C130.004 159.742 135.989 162.154 136.48 162.485C136.97 162.81 141.324 166.203 141.324 166.203L154.807 206.209C154.807 206.209 155.463 214.772 156.424 214.931L168.684 217.204L172.768 220.922L175.442 231.585L194.509 252.262L199.104 264.522L208.565 278.502L206.298 285.938L217.618 300.485L228.019 312.461L248.716 327.008L248.06 339.938L286.214 369.364L295.896 372.266L316.593 394.553L319.82 384.871L337.27 391.001L338.562 386.157L352.473 394.083L357.642 355.611L352.777 346.4L358.437 335.101L353.6 327.167L363.468 313.277L352.307 302.938L346.178 295.012L324.195 290.492L323.559 279.497L315.391 274.66L308.77 253.306L294.057 253.962L283.843 245.068L289.869 233.361L286.642 223.147L293.421 217.342L279.669 200.999L250.105 191.621L235.233 173.847L225.22 172.865L220.21 159.624L207.28 152.347L206.298 158.332L198.945 155.782L180.839 136.881L159.181 118.492L132.188 99.6949L133.474 88.5549L124.365 84.3463L105.852 67.5326L96.308 69.1704L87.255 64.3053L77.041 68.6797L67.3384 64.5886L57.0414 55.0104C57.0414 55.0104 36.033 52.6815 36.5029 52.9648C36.9728 53.2482 46.7169 81.7547 47.3319 82.0795" fill="black" fill-opacity="0.05"/>
</g>
<path d="M334.366 415.175L344.705 417.213L354.089 409.619L361.359 395.065L381.794 398.458L390.516 404.442L392.298 397.172L402.001 398.299L409.928 404.933L415.097 403.959L423.825 408.043L426.092 405.14C426.092 405.14 430.28 410.78 431.565 410.945C432.857 411.104 438.531 422.265 439.001 422.265C439.471 422.265 455.497 425.002 455.497 425.002L482.054 423.551L489.331 423.875C489.331 423.875 502.593 409.577 505.33 410.945C508.066 412.314 519.386 419.998 519.386 419.998C519.386 419.998 543.477 423.551 543.311 424.698C543.152 425.838 550.747 426.736 550.747 426.736L558.024 441.283L571.43 450.177L592.923 448.132L608.755 449.908L609.736 455.893L608.43 472.547L611.989 477.717H607.794L598.092 476.265C598.092 476.265 576.6 467.378 575.148 466.887C573.697 466.397 556.082 471.096 556.082 471.096L533.297 463.985L526.331 466.887L491.432 459.286L475.275 451.684L462.338 449.645L446.506 446.881L435.857 449.355L430.363 453.073L419.368 451.034C419.368 451.034 402.409 442.859 401.918 443.108C401.428 443.35 377.399 442.147 377.399 442.147L369.473 436.978L372.064 430.358L366.37 426.881L355.534 422.694L349.404 425.596L336.861 422.286L334.366 415.175Z" fill="black" fill-opacity="0.05"/>
<path d="M557.347 429.597C558.328 428.865 569.219 422.935 571.037 423.06C572.861 423.184 581.831 424.145 582.198 424.145H599.647L591.043 431.297L577.111 435.893L562.931 435.423L557.347 429.597Z" fill="black" fill-opacity="0.05"/>
<path d="M613.358 460.737L622.079 463.294L631.768 458.919L643.288 464.372L647.766 468.463C647.766 468.463 636.136 473.079 635.058 475.491C634.256 478.228 633.848 481.02 633.827 483.867H627.166L630.068 479.983L628.251 475.367C626.018 473.059 623.434 471.241 620.511 469.914C618.002 469.078 615.452 468.394 612.867 467.869L611.05 460.371L613.358 460.737Z" fill="black" fill-opacity="0.05"/>
<path d="M658.084 478.553L656.633 469.603L668.139 462.333L678.927 466.563L669.915 483.66L653.178 482.803C654.705 481.269 656.343 479.852 658.084 478.553Z" fill="black" fill-opacity="0.05"/>
<path d="M463.341 161.933L455.573 167.102L444.91 192.312L452.346 216.223L459.132 224.944L453.631 234.322L460.743 253.389L475.048 263.423L491.212 312.233L532.911 309.642L539.372 320.305L559.413 322.247L574.921 316.117L608.859 323.228C608.859 323.228 614.685 336.158 614.36 337.526C614.028 338.902 658.637 327.188 658.637 327.188L670.897 285.814L673.143 274.19L704.178 242.193L703.854 203.086L720.342 193.376L744.862 195.975L728.698 180.446L719.32 158.153L695.74 138.436L695.416 122.438L692.022 113.219L709.472 112.729L705.588 99.6535L690.081 92.3766L652.258 92.8465L643.537 105.459L644.498 128.257L633.828 132.611L629.045 140.827L632.929 146.646L621.775 154.414L622.757 164.628L612.011 179.645L596.012 174.787L586.814 183.998L564.5 179.645V172.271L553.346 173.232L541.722 181.407L537.348 190.128L511.17 190.619L495.172 196.424L482.076 185.775L467.632 176.625L463.341 161.933Z" fill="black" fill-opacity="0.05"/>
<path d="M765.559 385.445L760.369 371.859L761.35 350.359L758.123 333.87L759.242 324.679L756.81 322.896L742.753 327.741L740.715 314.154L747.335 299.849L749.906 281.771L753.79 281.28L753.154 255.738L763.375 238.123L766.927 219.222L780.824 194.703L788.751 197.792L798.274 179.997L815.578 183.404L824.631 188.739L850.477 192.457L858.404 195.684L863.082 192.602L891.361 194.233L901.575 184.855L910.303 184.04L918.865 170.633L924.359 169.023L930.185 177.744L913.06 198.608L904.173 209.761L872.709 213.155L863.331 207.985L826.324 208.946L821.114 206.209L811.266 209.112L800.437 208.946C799.387 207.944 798.191 207.17 796.85 206.61C795.517 206.057 794.121 205.76 792.669 205.719C787.5 205.394 780.88 211.703 780.88 211.703L775.22 236.43L781.84 246.278L795.924 260.583L803.664 263.969L816.435 246.519L839.545 247.501L860.567 242.988L870.788 236.692C870.788 236.692 879.675 241.371 878.224 242.822C876.772 244.273 874.672 252.366 874.672 252.366L867.395 247.687L851.763 253.085L832.703 271.474C832.703 271.474 826.711 273.25 822.358 274.065C819.739 274.501 817.582 275.738 815.882 277.783L833.657 294.127L840.63 310.761L842.24 314.32L839.807 328.231L852.578 337.754L860.18 349.565C856.033 351.064 851.776 352.142 847.409 352.792C843.325 352.958 834.313 357.146 834.313 357.146L834.638 366.358C831.376 365.694 828.246 364.616 825.26 363.13C822.372 361.209 819.835 358.887 817.658 356.185L821.867 342.454L805.378 330.643L800.375 323.207L806.829 311.908L805.053 300.098L793.754 296.007L777.411 310.312L788.24 319.669L786.788 336.02L780.659 346.683L785.192 363.987L779.532 372.059L787.604 388.223L774.529 388.548L765.559 385.445Z" fill="black" fill-opacity="0.05"/>
<path d="M853.234 358.535L844.568 362.619L843.449 373.78L842.488 381.375C842.488 381.375 849.903 386.219 850.069 385.977C850.228 385.728 864.368 377.988 864.063 377.988C862.875 376.662 861.797 375.259 860.815 373.78L866.309 361.52L857.505 361.762C857.505 361.762 851.375 375.328 852.011 375.169C852.64 375.003 853.234 358.535 853.234 358.535Z" fill="black" fill-opacity="0.05"/>
<mask id="mask1_87_2352" style="mask-type:luminance" maskUnits="userSpaceOnUse" x="1086" y="229" width="312" height="261">
<path d="M1086.25 229.27H1397.44V489.333H1086.25V229.27Z" fill="white"/>
</mask>
<g mask="url(#mask1_87_2352)">
<path d="M1395.27 488.38V428.575L1392.37 413.724L1396.88 407.248V296.705L1361.33 290.575L1327.09 272.801L1300.52 265.358L1283.07 271.184L1282.42 281.197L1261.75 285.081L1255.62 300.257L1239.45 312.233L1229.42 321.265L1219.4 318.363L1205.11 297.686L1198.3 299.932L1191.84 272.801L1193.79 259.864L1185.71 243.7L1168.57 244.032L1150.47 230.445L1135.29 232.055L1122.03 241.765L1113.63 243.05L1106.19 253.085L1100.69 257.169L1097.51 249.118L1086.84 249.443L1097.18 266.243L1118.84 264.197L1125.95 270.327L1142.11 289.981C1142.11 289.981 1151.49 289.656 1152.45 289.656C1153.41 289.656 1184.12 281.909 1184.12 281.909L1187.04 292.247L1179.93 299.994L1165.63 292.579L1150.75 305.82L1134.59 300.651L1127.15 305.488L1151.41 320.042L1156.25 330.381L1150.12 337.492L1174.05 337.181L1176.32 319.711L1184.06 312.295L1181.81 325.861L1185.69 331.687L1216.34 348.811C1216.34 348.811 1235.76 353.649 1237.37 353.981C1238.98 354.305 1261.6 355.287 1261.6 355.287L1305.55 375.964L1314.7 398.278L1330.23 423.488L1338.41 429.618L1330.01 430.903L1334.52 443.515L1322.57 438.671L1307.39 450.295C1307.39 450.295 1295.75 469.05 1297.03 468.684C1298.32 468.318 1337.45 470.301 1337.45 470.301L1348.74 463.19L1366.52 460.288L1395.27 488.38Z" fill="black" fill-opacity="0.05"/>
</g>
<path d="M1008.3 153.84L997.959 173.232L994.565 195.546L997.226 210.805L1002.06 216.423C1002.06 216.423 1000.37 226.644 1001.1 227.093C1001.84 227.543 1007.4 234.122 1007.4 234.122L1014.68 245.766L1015.66 243.092L1008.13 223.452L1010.79 205.062C1010.79 205.062 1034.31 215.732 1034.31 214.993C1034.31 214.26 1030.67 206.023 1030.67 206.023L1019.31 199.672L1027.05 193.114L1033.37 188.511L1029.73 173.722L1023.6 175.906L1014.16 182.036L1016.33 185.92L1012.24 186.901L1007.38 197.115L1002.8 193.95L1001.82 190.557L1011.28 178.193V172.064L1006.44 166.487L1011.28 157.026L1008.3 153.84Z" fill="black" fill-opacity="0.05"/>
<path d="M679.742 473.999L690.875 468.995L706.404 476.265L711.905 479.658L724.344 476.431L716.742 471.262L710.287 469.486C707.903 467.33 705.637 465.063 703.487 462.679C703.978 462.679 717.399 461.552 717.399 461.552C719.361 463.494 721.455 465.27 723.694 466.887C724.344 466.887 731.766 463.66 731.766 463.66L747.294 467.544L750.68 476.265L741.468 482.395L737.115 477.226L731.213 481.434L727.82 477.35L718.684 484.095L704.386 485.076L698.069 489.161L693.557 486.728L689.182 489.63L678.927 486.134L679.742 473.999Z" fill="black" fill-opacity="0.05"/>
<path d="M765.234 475.125L794.004 464.151L818.889 472.872L826.961 469.624L834.397 471.835L845.716 472.485L862.205 465.374C862.205 465.374 857.997 475.712 857.015 475.063C856.034 474.406 836.338 481.538 836.338 481.538L826.629 486.134L818.889 482.25L807.894 487.115L789.138 482.906L777.839 483.231L765.234 475.125Z" fill="black" fill-opacity="0.05"/>
<path d="M743.244 498.725C744.536 498.393 769.809 495.491 770.728 495.491C771.647 495.491 778.205 502.277 778.205 502.277L781.433 501.952L784.01 507.142L789.829 506.486L799.539 517.149L795.98 521.993L778.841 522.318L768.828 513.922L756.568 510.694L755.587 507.771L749.457 508.428L743.244 498.725Z" fill="black" fill-opacity="0.05"/>
<mask id="mask2_87_2352" style="mask-type:luminance" maskUnits="userSpaceOnUse" x="868" y="480" width="65" height="45">
<path d="M868.646 480.488H932.334V524.612H868.646V480.488Z" fill="white"/>
</mask>
<g mask="url(#mask2_87_2352)">
<path d="M868.991 521.993L878.673 514.882L882.882 499.699L921.989 481.925L923.931 484.828H930.717L927.815 491.614L929.757 497.433L911.326 515.214L897.76 523.61H880.94L868.991 521.993Z" fill="black" fill-opacity="0.05"/>
</g>
<path d="M1011.52 307.368L1034.14 302.855L1040.62 307.043L1049.98 303.18L1072.62 310.927L1082 309.31L1096.53 332.26V336.794L1070.68 326.759L1067.12 318.363L1056.46 323.532L1038.03 321.265L1035.76 315.792L1025.09 324.838L1017.35 317.706L1006.69 322.247L1010.24 314.154L1015.08 312.233L1011.52 307.368Z" fill="black" fill-opacity="0.05"/>
<path d="M949.943 313.85L978.795 311.169L992.133 324.023L977.095 332.012L961.837 331.051L949.943 313.85Z" fill="black" fill-opacity="0.05"/>
<path d="M889.336 469.956L892.75 465.602L902.929 460.592L912.777 461.393H924.746L925.707 465.436L910.365 469.32L903.558 472.547L894.837 474.164L893.71 471.262L889.336 469.956Z" fill="black" fill-opacity="0.05"/>
<path d="M868.825 472.381C869.62 471.566 875.936 466.072 875.936 466.072L878.673 467.544L886.848 464.455L878.327 475.45L868.825 472.381Z" fill="black" fill-opacity="0.05"/>
<path d="M1203.04 380.027L1191.64 400.137L1191.89 425.347L1194.56 429.722L1207.17 410.089L1212.26 395.783L1207.88 383.911L1203.04 380.027Z" fill="black" fill-opacity="0.05"/>
<path d="M1117.71 430.924L1104.62 442.085L1096.61 457.593L1107.52 454.932L1117.94 443.536L1120.62 436.259L1117.71 430.924Z" fill="black" fill-opacity="0.05"/>
<path d="M341.969 268.751L347.525 286.449L355.051 288.488C355.051 288.488 359.667 301.342 360.379 301.591C361.098 301.833 368.858 306.186 368.858 306.186L380.261 296.968L372.984 292.026L357.967 267.058L351.167 272.884L341.969 268.751Z" fill="black" fill-opacity="0.05"/>
</g>
<defs>
<clipPath id="clip0_87_2352">
<rect width="1433" height="694" fill="white"/>
</clipPath>
</defs>
</svg>
